<?xml version="1.0" encoding="UTF-8" standalone="no"?>
<svg
   xmlns:dc="http://purl.org/dc/elements/1.1/"
   xmlns:cc="http://creativecommons.org/ns#"
   xmlns:rdf="http://www.w3.org/1999/02/22-rdf-syntax-ns#"
   xmlns:svg="http://www.w3.org/2000/svg"
   xmlns="http://www.w3.org/2000/svg"
   xmlns:sodipodi="http://sodipodi.sourceforge.net/DTD/sodipodi-0.dtd"
   xmlns:inkscape="http://www.inkscape.org/namespaces/inkscape"
   xml:space="preserve"
   width="188.017mm"
   height="79.4625mm"
   version="1.0"
   style="shape-rendering:geometricPrecision; text-rendering:geometricPrecision; image-rendering:optimizeQuality; fill-rule:evenodd; clip-rule:evenodd"
   viewBox="0 0 188.3572 79.6062"
   id="svg33"
   sodipodi:docname="pokemon-sombra.svg"
   inkscape:version="1.0.2-2 (e86c870879, 2021-01-15)"><metadata
   id="metadata37"><rdf:RDF><cc:Work
       rdf:about=""><dc:format>image/svg+xml</dc:format><dc:type
         rdf:resource="http://purl.org/dc/dcmitype/StillImage" /></cc:Work></rdf:RDF></metadata><sodipodi:namedview
   pagecolor="#ffffff"
   bordercolor="#666666"
   borderopacity="1"
   objecttolerance="10"
   gridtolerance="10"
   guidetolerance="10"
   inkscape:pageopacity="0"
   inkscape:pageshadow="2"
   inkscape:window-width="1920"
   inkscape:window-height="1017"
   id="namedview35"
   showgrid="false"
   inkscape:zoom="1.4719635"
   inkscape:cx="355.30771"
   inkscape:cy="150.16536"
   inkscape:window-x="-8"
   inkscape:window-y="-8"
   inkscape:window-maximized="1"
   inkscape:current-layer="svg33" />
 <defs
   id="defs9">
  <style
   type="text/css"
   id="style2">
   <![CDATA[
    .fil4 {fill:#FEFEFE;fill-rule:nonzero}
    .fil3 {fill:#373435;fill-rule:nonzero}
    .fil1 {fill:#FFCC29;fill-rule:nonzero}
    .fil2 {fill:#205497;fill-rule:nonzero}
    .fil0 {fill:url(#id0)}
   ]]>
  </style>
  <linearGradient
   id="id0"
   gradientUnits="userSpaceOnUse"
   x1="93.0819"
   y1="2.5654"
   x2="93.0819"
   y2="72.2884">
   <stop
   offset="0"
   style="stop-opacity:1; stop-color:#029FC5"
   id="stop4" />
   <stop
   offset="1"
   style="stop-opacity:1; stop-color:#BCDDEA"
   id="stop6" />
  </linearGradient>
 </defs>
 <g
   id="Camada_x0020_1">
  <metadata
   id="CorelCorpID_0Corel-Layer" />
  <path
   class="fil0"
   d="M110.5637 34.5429l-2.2464 -2.0028 2.4 -2.5863 0.7199 -0.7761 -0.8736 5.3652zm-32.1111 2.4969l3.2702 -3.2172c-0.14,1.4696 -0.0664,2.9942 0.2413,4.546l-3.5115 -1.3288zm-71.616 1.9728c0,0 1.589,2.6739 1.5966,2.6704l2.8032 -1.402 0.3898 -0.1948 12.8505 28.6235 1.2351 2.7511 2.8786 -0.9524 6.959 -2.3023 3.0472 -1.0083 -0.8062 -3.0945 -3.6942 -14.1829c1.065,-0.7955 2.0557,-1.6438 2.9697,-2.5301 -0.2026,1.7042 -0.0986,3.42 0.3644,5.0619 0.9676,3.4344 3.221,6.1364 6.3456,7.6079 3.3744,1.5894 7.4938,1.5505 11.3015,-0.1063 1.9117,-0.8373 3.613,-2.0329 5.0486,-3.4636l0.5251 5.6518 12.1787 -1.9201 -0.0162 -10.952 25.4544 12.3516 0 -12.2156c1.0285,-0.0937 2.0695,-0.2665 3.116,-0.5305 2.8072,-0.7072 5.1977,-1.6674 7.3284,-2.9656l-1.0687 6.5622 13.7235 2.0265 0.7588 -4.9637 3.5851 6.6021 2.1862 -4.2544 0.7997 6.9364 15.5638 2.5899 -0.8267 -5.2405c2.1275,0.2177 4.3753,-0.0866 6.5431,-0.9277 0.5199,-0.2033 1.0231,-0.4362 1.5126,-0.6909l-0.6262 5.5956 10.3572 1.3448 0.0849 4.2551 10.7923 3.2905 14.0656 -42.6176 -14.6438 -3.4073 -1.39 5.7572 -1.285 -6.3538 -17.2064 -3.6136 0.1261 9.5835 2.5913 0.5507 -0.1944 1.7356c-0.0251,-0.0134 -0.0488,-0.0284 -0.0742,-0.0411 -3.2069,-1.673 -7.1906,-1.8007 -10.9457,-0.3435 -1.2529,0.4938 -2.4199,1.1465 -3.4864,1.9205l-2.585 -16.39 -11.4443 0.1194 -0.3206 1.8862 -12.039 0.1255 -1.378 8.4622 -1.0005 -1.2235c-2.9182,-3.5684 -7.1468,-5.5048 -11.8321,-5.555l10.2208 -5.6097 -7.1284 -10.5912 -12.8845 15.0092 2.2286 2.7009c-2.0201,0.8453 -3.779,1.9978 -5.2287,3.3867l-11.0446 -9.704 -3.8699 7.4595 0.1509 -7.1284 -17.2735 5.7048 0.4407 9.2998 2.939 -0.799 0.4379 4.7132c-3.3554,-1.4774 -7.3871,-1.4048 -11.1319,0.2251 -1.1073,0.4888 -2.1442,1.097 -3.1002,1.801 0.6489,-2.8789 0.4951,-5.7094 -0.5959,-8.2204 -1.2885,-2.9655 -3.5546,-5.4087 -6.3356,-6.934 -1.9496,-1.2797 -4.274,-2.0685 -6.7097,-2.3163 -5.9703,-0.9878 -13.1458,0.1658 -20.2052,3.2479 -2.5966,1.1334 -5.0205,2.4256 -7.2039,3.8399l-2.7616 1.7889 1.6667 2.8051 5.1699 8.7022z"
   id="path12" />
  <path
   class="fil1"
   d="M112.5922 31.1974l-2.2513 -2.0262 2.4053 -2.5615 0.7213 -0.7687 -0.8754 5.3564zm-8.432 -31.1974l-0.0043 0 -12.9103 14.872 2.2335 2.7238c-2.0247,0.8245 -3.7871,1.9586 -5.2405,3.332l-11.0686 -9.8193 -3.8784 7.4196 0.1513 -7.127 -17.3113 5.5246 0.4418 9.3044 2.9453 -0.7683 0.439 4.7177c-3.3628,-1.5122 -7.4031,-1.4819 -11.1563,0.1089 -1.1093,0.4771 -2.1488,1.0747 -3.1068,1.7685 0.6506,-2.8723 0.4962,-5.7042 -0.5973,-8.2266 -1.2914,-2.9793 -3.5624,-5.4457 -6.3495,-7 -1.9537,-1.3002 -4.2833,-2.1131 -6.7242,-2.3866 -5.9832,-1.0497 -13.1747,0.0286 -20.2495,3.0369 -2.6023,1.1069 -5.0314,2.3732 -7.2196,3.7649l-2.7676 1.7601 1.6705 2.8227 5.1813 8.7559c0,0 1.5924,2.6909 1.6,2.6874l2.8093 -1.3731 0.3905 -0.1908 12.8787 28.7578 1.2377 2.7641 2.8846 -0.9224 6.9745 -2.2297 3.0538 -0.9765 -0.8079 -3.103 -3.7024 -14.2212c1.0673,-0.7849 2.0604,-1.6225 2.9765,-2.4993 -0.2033,1.7021 -0.099,3.4193 0.3651,5.0658 0.9695,3.4444 3.2277,6.1699 6.359,7.6742 3.3822,1.6245 7.5105,1.6288 11.3266,0.0115 1.9159,-0.8174 3.6207,-1.995 5.0595,-3.4108l0.5258 5.6575 12.2055 -1.7932 -0.0159 -10.952 25.5099 12.6172 0 -12.2158c1.0306,-0.0826 2.0742,-0.2449 3.1227,-0.4976 2.8133,-0.6782 5.2094,-1.6133 7.3444,-2.8892l-1.0711 6.5513 13.7538 2.1692 0.7602 -4.9555 3.5929 6.6396 2.1912 -4.2317 0.8011 6.9452 15.5981 2.7518 -0.8284 -5.249c2.1324,0.2403 4.3848,-0.0407 6.5576,-0.8592 0.5209,-0.1976 1.0253,-0.4255 1.5154,-0.6753l-0.6273 5.5896 10.3798 1.4522 0.0848 4.2561 10.816 3.4034 14.0963 -42.4711 -14.6756 -3.5599 -1.3932 5.7427 -1.2878 -6.3671 -17.2439 -3.7932 0.1265 9.5846 2.5966 0.5782 -0.1944 1.7334c-0.0254,-0.0137 -0.0495,-0.029 -0.0746,-0.0424 -3.2139,-1.7059 -7.2065,-1.8752 -10.9696,-0.4573 -1.2554,0.4803 -2.4252,1.121 -3.4942,1.8837l-2.5906 -16.4165 -11.4691 0 -0.3212 1.8827 -12.0657 0 -1.3808 8.4476 -1.0029 -1.2341c-2.9242,-3.5988 -7.162,-5.5794 -11.8575,-5.6779l10.2427 -5.5037 -7.1417 -10.6625zm-8.704 32.0661c-0.8656,-1.583 -0.6824,-3.6041 0.6036,-5.0089 1.2419,-1.3567 3.1465,-1.7395 4.7648,-1.1139l-5.3684 6.1229zm-15.0453 1.2931l3.2772 -3.1835c-0.1404,1.4682 -0.0664,2.9938 0.2417,4.5488l-3.519 -1.3653zm-48.2023 2.8189c-0.503,-1.6664 -1.5877,-5.262 -1.5877,-5.262 0.0057,0.0197 -0.2191,-0.7743 -0.4718,-1.666 0.9926,-0.1742 1.9422,-0.0827 2.7228,0.2961 0.4344,0.211 1.1878,0.7023 1.3524,1.6236 0.3697,2.0681 -0.346,3.5377 -2.0158,5.0082z"
   id="path14" />
  <path
   class="fil2"
   d="M172.2304 62.3842l-5.9843 -1.7893 -0.5216 -22.0584 -3.0111 17.0176 -6.5301 -1.0383 0.4651 -4.9065c4.2636,-3.6013 6.5279,-9.2808 5.2914,-14.4307 -0.5454,-2.2837 -1.7148,-4.2657 -3.3748,-5.7815l0.5481 -5.7776 -2.465 -0.6584 0.1686 -3.0864 11.2489 2.2612 3.7822 17.938 3.8748 -16.0808 8.5576 1.894 -12.0498 36.4972zm-68.0702 -62.3842l-0.0043 0 -12.9103 14.872 2.2335 2.7238c-2.0247,0.8245 -3.7871,1.9586 -5.2405,3.332l-11.0686 -9.8193 -3.8784 7.4196 0.1513 -7.127 -17.3113 5.5246 0.4418 9.3044 2.9453 -0.7683 0.439 4.7177c-3.3628,-1.5122 -7.4031,-1.4819 -11.1563,0.1089 -1.1093,0.4771 -2.1488,1.0747 -3.1068,1.7685 0.6506,-2.8723 0.4962,-5.7042 -0.5973,-8.2266 -1.2914,-2.9793 -3.5624,-5.4457 -6.3495,-7 -1.9537,-1.3002 -4.2833,-2.1131 -6.7242,-2.3866 -5.9832,-1.0497 -13.1747,0.0286 -20.2495,3.0369 -2.6023,1.1069 -5.0314,2.3732 -7.2196,3.7649l-2.7676 1.7601 1.6705 2.8227 5.1813 8.7559c0,0 1.5924,2.6909 1.6,2.6874l2.8093 -1.3731 0.3905 -0.1908 12.8787 28.7578 1.2377 2.7641 2.8846 -0.9224 6.9745 -2.2297 3.0538 -0.9765 -0.8079 -3.103 -3.7024 -14.2212c1.0673,-0.7849 2.0604,-1.6225 2.9765,-2.4993 -0.2033,1.7021 -0.099,3.4193 0.3651,5.0658 0.9695,3.4444 3.2277,6.1699 6.359,7.6742 3.3822,1.6245 7.5105,1.6288 11.3266,0.0115 1.9159,-0.8174 3.6207,-1.995 5.0595,-3.4108l0.5258 5.6575 12.2055 -1.7932 -0.0159 -10.952 25.5099 12.6172 0 -12.2158c1.0306,-0.0826 2.0742,-0.2449 3.1227,-0.4976 2.8133,-0.6782 5.2094,-1.6133 7.3444,-2.8892l-1.0711 6.5513 13.7538 2.1692 0.7602 -4.9555 3.5929 6.6396 2.1912 -4.2317 0.8011 6.9452 15.5981 2.7518 -0.8284 -5.249c2.1324,0.2403 4.3848,-0.0407 6.5576,-0.8592 0.5209,-0.1976 1.0253,-0.4255 1.5154,-0.6753l-0.6273 5.5896 10.3798 1.4522 0.0848 4.2561 10.816 3.4034 14.0963 -42.4711 -14.6756 -3.5599 -1.3932 5.7427 -1.2878 -6.3671 -17.2439 -3.7932 0.1265 9.5846 2.5966 0.5782 -0.1944 1.7334c-0.0254,-0.0137 -0.0495,-0.029 -0.0746,-0.0424 -3.2139,-1.7059 -7.2065,-1.8752 -10.9696,-0.4573 -1.2554,0.4803 -2.4252,1.121 -3.4942,1.8837l-2.5906 -16.4165 -11.4691 0 -0.3212 1.8827 -12.0657 0 -1.3808 8.4476 -1.0029 -1.2341c-2.9242,-3.5988 -7.162,-5.5794 -11.8575,-5.6779l10.2427 -5.5037 -7.1417 -10.6625zm46.9201 49.6337c-2.0926,0.7881 -4.1583,0.951 -6.0105,0.5864 -1.2836,-0.2521 -2.4633,-0.7585 -3.4784,-1.489 -1.6228,-1.1677 -2.8241,-2.9047 -3.3443,-5.0899 -0.6234,-2.6138 -0.053,-5.4147 1.3518,-7.8508 0.6991,-1.2119 1.6041,-2.3325 2.6735,-3.2956 1.1861,-1.0679 2.5714,-1.9427 4.1004,-2.528 3.5687,-1.3447 7.0771,-0.8747 9.5652,0.9061 0.9022,0.6454 1.6692,1.4631 2.2566,2.4301 0.453,0.7454 0.8015,1.5773 1.0192,2.4888 0.7535,3.138 -0.1485,6.5078 -2.1296,9.2234 -0.844,1.1571 -1.883,2.1955 -3.0755,3.0457 -0.8966,0.6398 -1.8784,1.1744 -2.9284,1.5727zm-8.628 4.6906l-8.6174 -1.3162 -2.2894 -15.1876 -3.2408 8.3794 -4.8567 -10.4699 -0.0523 0 -1.923 12.1289 -8.0872 -1.4062 1.1337 -6.769c0.305,-0.2848 0.6075,-0.5764 0.9044,-0.8832l2.6163 -2.6998 -2.5379 -2.2837 2.699 -16.1126 8.1706 0 2.0371 11.1516 2.2954 -12.9286 5.8363 0 2.4255 15.7531c-3.0875,3.5151 -4.581,8.2343 -3.5497,12.5601 0.7962,3.3436 2.8578,6.0476 5.8045,7.6133 0.2986,0.1587 0.6061,0.2993 0.9175,0.4311l0.3139 2.0393zm-39.8352 -12.0875c-0.7963,0.1918 -1.5795,0.3198 -2.3474,0.3947 -5.808,0.5662 -10.6767,-2.1063 -12.5314,-6.4293 -0.2212,-0.5163 -0.4004,-1.0557 -0.5326,-1.6165 -0.8584,-3.6466 -0.1304,-6.8991 1.6706,-9.4493 0.5208,-0.7376 1.1337,-1.4141 1.8222,-2.0266 1.6971,-1.5108 3.8628,-2.6202 6.3152,-3.2115 5.539,-1.3348 10.4137,0.358 13.3913,4.0227l-10.5392 11.2248c0.7185,0.1276 1.8547,-0.06 2.6927,-0.2622 2.5131,-0.6058 3.9222,-1.9343 5.1528,-3.3917l4.2131 3.7917 1.279 1.1515c-0.5609,0.5785 -1.1352,1.1104 -1.7293,1.6017 -2.4248,2.0049 -5.1935,3.3171 -8.8569,4.2zm-5.5402 10.8258l-25.3134 -12.6612 0.0445 13.2636 -6.5484 0.8966 -0.4611 -5.4776c2.0268,-3.4616 2.7654,-7.5478 1.7056,-11.2863 -0.5799,-2.0558 -1.6463,-3.8516 -3.1002,-5.2779l-0.9394 -11.1562 -2.9457 0.7683 -0.1279 -2.8174 10.5198 -3.1314 0.6404 10.8457 7.7494 -10.8863 7.573 7.2086 -10.5851 11.1608 9.9444 3.9353c1.1161,2.1042 2.8026,3.8992 4.9351,5.2114 2.06,1.2671 4.4117,2.0248 6.9093,2.2587l0 7.1451zm-35.4253 -4.6683c-1.4486,2.0088 -3.4518,3.6829 -5.82,4.6934 -6.0544,2.5658 -12.1038,0 -13.7197,-5.7402 -1.5673,-5.5645 2.0775,-12.1703 7.9427,-14.6922 3.7406,-1.5855 7.4955,-1.2098 10.1907,0.6195 1.6671,1.1316 2.9298,2.8182 3.5296,4.9446 0.0654,0.2312 0.1191,0.4644 0.1675,0.6984 0.1675,0.8101 0.2347,1.635 0.2072,2.4608 -0.0809,2.4566 -0.9861,4.9185 -2.498,7.0157zm-29.5739 -4.0781l4.3047 16.5352 -6.9741 2.2296 -14.3166 -31.9685c-0.775,0.4082 -2.2118,1.0946 -3.5383,1.747l-5.1813 -8.7559c2.067,-1.3147 4.3224,-2.4834 6.7273,-3.5058 6.752,-2.8712 13.1819,-3.7229 18.3388,-2.8182 1.8178,0.2082 3.7507,0.7507 5.4329,1.8703 2.3209,1.3035 4.0922,3.1596 5.1188,5.5278 2.4923,5.7484 -1.6723,14.0526 -9.9123,19.1385zm51.8522 -9.5917l-3.519 -1.3653 3.2772 -3.1835c-0.1404,1.4682 -0.0664,2.9938 0.2417,4.5488zm19.6778 -29.9887l3.7762 5.132 -10.8004 5.3522 -0.746 -1.1306 7.7702 -9.3535zm9.1386 21.874l0.7213 -0.7687 -0.8754 5.3564 -2.2513 -2.0262 2.4053 -2.5615z"
   id="path16" />
  <path
   class="fil2"
   d="M154.1497 33.9099c0.0679,0.258 0.1022,0.5262 0.0909,0.8029 -0.0678,1.6713 -1.6452,2.9645 -3.5229,2.8881 -1.878,-0.076 -3.3454,-1.4929 -3.2775,-3.1641 0.0639,-1.5699 1.4595,-2.8058 3.1849,-2.8867 -0.3312,-0.0714 -0.6726,-0.1188 -1.025,-0.1332 -3.1376,-0.1276 -5.7045,2.0972 -5.8172,4.8693 -0.1198,2.9507 2.2584,5.3758 5.3486,5.5016 3.1377,0.1272 5.7049,-2.0975 5.8247,-5.0481 0.0417,-1.0235 -0.2584,-1.999 -0.8066,-2.8298z"
   id="path18" />
  <path
   class="fil2"
   d="M58.8794 37.2882c0,1.673 -1.5236,3.0288 -3.403,3.0288 -1.8791,0 -3.4026,-1.3557 -3.4026,-3.0288 0,-1.5713 1.344,-2.8624 3.0648,-3.0136 -0.3336,-0.0576 -0.6768,-0.0912 -1.0292,-0.0912 -3.1405,0 -5.615,2.3266 -5.615,5.1012 0,2.9531 2.4746,5.2797 5.5673,5.2797 3.1404,0 5.615,-2.3266 5.615,-5.2797 0,-1.0245 -0.3393,-1.9873 -0.9207,-2.7951 0.0781,0.2552 0.1233,0.5219 0.1233,0.7987z"
   id="path20" />
  <path
   class="fil2"
   d="M95.599 31.636c-0.7796,-1.4165 -0.6209,-3.2288 0.5284,-4.4912 1.1097,-1.2196 2.8164,-1.5674 4.2682,-1.0107l-4.7966 5.5019zm7.4575 -6.3275c-2.4594,-2.2385 -6.2682,-2.0594 -8.5068,0.4 -2.2385,2.4597 -2.0593,6.2685 0.4,8.5071 0.2047,0.1862 0.4213,0.3492 0.6426,0.5019l7.8907 -8.98c-0.1339,-0.1484 -0.2754,-0.2919 -0.4266,-0.429zm-6.9291 1.8363c-1.1493,1.2624 -1.308,3.0748 -0.5284,4.4912l4.7966 -5.5019c-1.4518,-0.5567 -3.1585,-0.2089 -4.2682,1.0107zm-0.5284 4.4912c-0.7796,-1.4165 -0.6209,-3.2288 0.5284,-4.4912 1.1097,-1.2196 2.8164,-1.5674 4.2682,-1.0107l-4.7966 5.5019z"
   id="path22" />
  <path
   class="fil2"
   d="M32.1237 35.8342c-0.4773,-1.5691 -1.5064,-4.9541 -1.5064,-4.9541 0.0054,0.018 -0.208,-0.7291 -0.4476,-1.5691 0.9346,-0.1658 1.8294,-0.0816 2.5656,0.2739 0.4096,0.1979 1.1204,0.6595 1.2773,1.5268 0.3523,1.948 -0.3188,3.3337 -1.8889,4.7226zm4.3884 -5.1746c-0.6132,-3.3893 -5.0239,-5.286 -9.4333,-2.9217l1.1081 3.8808 1.7445 5.7374 0.7956 2.6167c3.3043,-2.1 6.634,-4.6209 5.785,-9.3132z"
   id="path24" />
  <path
   class="fil3"
   d="M177.0507 63.3243l1.4787 0 0 0.2169 -0.6142 0 0 1.6049 -0.2506 0 0 -1.6049 -0.6139 0 0 -0.2169z"
   id="path26" />
  <path
   class="fil3"
   d="M178.7489 65.1461l0 -1.8218 0.3534 0 0.5233 1.5402 0.5195 -1.5402 0.3499 0 0 1.8218 -0.2343 0 0 -1.0754c0,-0.037 0.0007,-0.0986 0.0024,-0.1844 0.0018,-0.0863 0.0025,-0.1785 0.0025,-0.2766l-0.5198 1.5365 -0.2442 0 -0.5234 -1.5365 0 0.0557c0,0.0446 0.0011,0.1128 0.0032,0.204 0.0021,0.0915 0.0032,0.1587 0.0032,0.2014l0 1.0754 -0.2357 0z"
   id="path28" />
  
 </g>
</svg>
