<?xml version="1.0" encoding="UTF-8" standalone="no"?>
<svg
   xmlns:osb="http://www.openswatchbook.org/uri/2009/osb"
   xmlns:dc="http://purl.org/dc/elements/1.1/"
   xmlns:cc="http://creativecommons.org/ns#"
   xmlns:rdf="http://www.w3.org/1999/02/22-rdf-syntax-ns#"
   xmlns:svg="http://www.w3.org/2000/svg"
   xmlns="http://www.w3.org/2000/svg"
   xmlns:xlink="http://www.w3.org/1999/xlink"
   xmlns:sodipodi="http://sodipodi.sourceforge.net/DTD/sodipodi-0.dtd"
   xmlns:inkscape="http://www.inkscape.org/namespaces/inkscape"
   width="297mm"
   height="210mm"
   viewBox="0 0 297 210"
   version="1.1"
   id="svg1088"
   inkscape:version="1.0.2-2 (e86c870879, 2021-01-15)"
   sodipodi:docname="pokedex.svg">
  <defs
     id="defs1082">
    <linearGradient
       id="linearGradient1931"
       osb:paint="solid">
      <stop
         style="stop-color:#2f6eb5;stop-opacity:1;"
         offset="0"
         id="stop1929" />
    </linearGradient>
    <linearGradient
       id="linearGradient1925"
       osb:paint="solid">
      <stop
         style="stop-color:#da0000;stop-opacity:1;"
         offset="0"
         id="stop1923" />
    </linearGradient>
    <linearGradient
       id="linearGradient1919"
       osb:paint="solid">
      <stop
         style="stop-color:#f2c105;stop-opacity:1;"
         offset="0"
         id="stop1917" />
    </linearGradient>
    <linearGradient
       inkscape:collect="always"
       xlink:href="#linearGradient1919"
       id="linearGradient1921"
       x1="5.1128832"
       y1="104.97723"
       x2="291.95172"
       y2="104.97723"
       gradientUnits="userSpaceOnUse" />
    <linearGradient
       inkscape:collect="always"
       xlink:href="#linearGradient1931"
       id="linearGradient1933"
       x1="4.9805627"
       y1="104.97723"
       x2="292.08404"
       y2="104.97723"
       gradientUnits="userSpaceOnUse" />
    <linearGradient
       inkscape:collect="always"
       xlink:href="#linearGradient1919"
       id="linearGradient2124"
       gradientUnits="userSpaceOnUse"
       x1="5.1128832"
       y1="104.97723"
       x2="291.95172"
       y2="104.97723" />
    <linearGradient
       inkscape:collect="always"
       xlink:href="#linearGradient1931"
       id="linearGradient2126"
       gradientUnits="userSpaceOnUse"
       x1="4.9805627"
       y1="104.97723"
       x2="292.08404"
       y2="104.97723" />
    <linearGradient
       inkscape:collect="always"
       xlink:href="#linearGradient1919"
       id="linearGradient2128"
       gradientUnits="userSpaceOnUse"
       x1="5.1128832"
       y1="104.97723"
       x2="291.95172"
       y2="104.97723" />
    <linearGradient
       inkscape:collect="always"
       xlink:href="#linearGradient1931"
       id="linearGradient2130"
       gradientUnits="userSpaceOnUse"
       x1="4.9805627"
       y1="104.97723"
       x2="292.08404"
       y2="104.97723" />
    <linearGradient
       inkscape:collect="always"
       xlink:href="#linearGradient1919"
       id="linearGradient2132"
       gradientUnits="userSpaceOnUse"
       x1="5.1128832"
       y1="104.97723"
       x2="291.95172"
       y2="104.97723" />
    <linearGradient
       inkscape:collect="always"
       xlink:href="#linearGradient1931"
       id="linearGradient2134"
       gradientUnits="userSpaceOnUse"
       x1="4.9805627"
       y1="104.97723"
       x2="292.08404"
       y2="104.97723" />
    <linearGradient
       inkscape:collect="always"
       xlink:href="#linearGradient1919"
       id="linearGradient2136"
       gradientUnits="userSpaceOnUse"
       x1="5.1128832"
       y1="104.97723"
       x2="291.95172"
       y2="104.97723" />
    <linearGradient
       inkscape:collect="always"
       xlink:href="#linearGradient1931"
       id="linearGradient2138"
       gradientUnits="userSpaceOnUse"
       x1="4.9805627"
       y1="104.97723"
       x2="292.08404"
       y2="104.97723" />
    <linearGradient
       inkscape:collect="always"
       xlink:href="#linearGradient1919"
       id="linearGradient2140"
       gradientUnits="userSpaceOnUse"
       x1="5.1128832"
       y1="104.97723"
       x2="291.95172"
       y2="104.97723" />
    <linearGradient
       inkscape:collect="always"
       xlink:href="#linearGradient1931"
       id="linearGradient2142"
       gradientUnits="userSpaceOnUse"
       x1="4.9805627"
       y1="104.97723"
       x2="292.08404"
       y2="104.97723" />
    <linearGradient
       inkscape:collect="always"
       xlink:href="#linearGradient1919"
       id="linearGradient2144"
       gradientUnits="userSpaceOnUse"
       x1="5.1128832"
       y1="104.97723"
       x2="291.95172"
       y2="104.97723" />
    <linearGradient
       inkscape:collect="always"
       xlink:href="#linearGradient1931"
       id="linearGradient2146"
       gradientUnits="userSpaceOnUse"
       x1="4.9805627"
       y1="104.97723"
       x2="292.08404"
       y2="104.97723" />
    <linearGradient
       inkscape:collect="always"
       xlink:href="#linearGradient1919"
       id="linearGradient2148"
       gradientUnits="userSpaceOnUse"
       x1="5.1128832"
       y1="104.97723"
       x2="291.95172"
       y2="104.97723" />
    <linearGradient
       inkscape:collect="always"
       xlink:href="#linearGradient1931"
       id="linearGradient2150"
       gradientUnits="userSpaceOnUse"
       x1="4.9805627"
       y1="104.97723"
       x2="292.08404"
       y2="104.97723" />
  </defs>
  <sodipodi:namedview
     id="base"
     pagecolor="#ffffff"
     bordercolor="#666666"
     borderopacity="1.0"
     inkscape:pageopacity="0.0"
     inkscape:pageshadow="2"
     inkscape:zoom="0.98994949"
     inkscape:cx="462.54404"
     inkscape:cy="383.89105"
     inkscape:document-units="cm"
     inkscape:current-layer="layer1"
     inkscape:document-rotation="0"
     showgrid="false"
     inkscape:window-width="1920"
     inkscape:window-height="1017"
     inkscape:window-x="-8"
     inkscape:window-y="-8"
     inkscape:window-maximized="1" />
  <metadata
     id="metadata1085">
    <rdf:RDF>
      <cc:Work
         rdf:about="">
        <dc:format>image/svg+xml</dc:format>
        <dc:type
           rdf:resource="http://purl.org/dc/dcmitype/StillImage" />
        <dc:title></dc:title>
      </cc:Work>
    </rdf:RDF>
  </metadata>
  <g
     inkscape:label="Layer 1"
     inkscape:groupmode="layer"
     id="layer1">
    <g
       aria-label="PoKéDeX"
       transform="matrix(0.47877455,0,0,0.47898226,77.232664,54.625959)"
       id="text1092"
       style="font-style:normal;font-variant:normal;font-weight:normal;font-stretch:normal;font-size:70.5556px;line-height:1.25;font-family:'Pokemon Solid';-inkscape-font-specification:'Pokemon Solid, Normal';font-variant-ligatures:normal;font-variant-caps:normal;font-variant-numeric:normal;font-variant-east-asian:normal;opacity:1;fill:url(#linearGradient1921);fill-opacity:1;stroke:url(#linearGradient1933);stroke-width:3.26;stroke-miterlimit:4;stroke-dasharray:none;stroke-opacity:1">
      <path
         d="m 5.1128832,76.761882 q 4.1685683,-1.378039 7.8203718,-2.549372 3.686255,-1.171334 7.75147,-2.204863 4.065216,-1.06798 7.785921,-1.688098 2.859431,-0.482314 5.856667,-0.482314 4.995391,0 6.545685,0.275608 2.342667,0.447863 4.409726,1.446941 2.101509,0.999079 3.720705,2.687177 1.653647,1.653647 2.687176,3.927411 0.413412,0.930176 0.413412,1.963706 0,3.858509 -4.23747,9.50847 -4.203019,5.64996 -8.474941,9.852979 -4.23747,4.203023 -6.33898,6.028923 l 6.201176,21.73857 -9.026156,6.51123 -15.812999,-45.165232 q -0.0689,0 -0.654568,0.654569 -0.585667,0.654569 -1.550294,1.722549 -0.930177,1.033529 -1.171334,1.274686 -0.103353,0 -0.689019,-1.481392 Q 9.7982162,89.302038 8.8335888,86.683764 7.9034124,84.031038 6.7320791,80.827097 5.5262949,77.588705 5.1128832,76.761882 Z m 22.2897828,9.577372 2.82498,10.163038 q 2.135961,-2.170411 5.305451,-5.925568 3.16949,-3.755156 3.16949,-5.443254 0,-0.654569 -0.551216,-0.757922 -1.550294,-0.34451 -3.066137,-0.34451 -4.547529,0 -7.682568,2.308216 z"
         style="font-style:normal;font-variant:normal;font-weight:normal;font-stretch:normal;font-size:70.5556px;font-family:'Pokemon Solid';-inkscape-font-specification:'Pokemon Solid, Normal';font-variant-ligatures:normal;font-variant-caps:normal;font-variant-numeric:normal;font-variant-east-asian:normal;fill:url(#linearGradient2124);fill-opacity:1;stroke:url(#linearGradient2126);stroke-width:3.26;stroke-miterlimit:4;stroke-dasharray:none;stroke-opacity:1"
         id="path2081" />
      <path
         d="m 77.976702,94.194077 q 2.446019,1.309137 3.961862,3.548451 1.550294,2.204862 2.239314,4.995392 0.72347,2.75608 0.72347,5.75331 0,2.48047 -0.413411,4.78869 -0.378961,2.30821 -1.067981,4.23747 -0.689019,1.92925 -1.619196,3.27284 -2.170411,3.23839 -4.650882,5.58106 -2.48047,2.34267 -5.064293,3.78961 -2.583824,1.41249 -5.133196,2.06706 -2.514921,0.68902 -4.995392,0.68902 -2.928333,0 -5.581058,-0.93018 -2.618275,-0.89573 -4.478627,-2.37712 -3.066138,-2.54937 -4.788686,-6.85574 -1.722549,-4.34083 -1.722549,-9.16396 0,-8.30269 4.788686,-13.40143 4.099666,-4.375277 8.47494,-6.58014 4.375274,-2.239313 8.957254,-2.239313 2.687177,0 5.167647,0.689019 2.480471,0.654569 5.202098,2.135961 z m -2.032608,5.787764 q -0.585666,2.618279 -2.549372,4.616429 -1.929255,1.99816 -3.789608,1.99816 -0.930176,0 -1.653647,-0.48231 -1.033529,-0.82683 -1.033529,-2.89389 0,-1.58474 1.033529,-3.13504 1.067981,-1.55029 3.341745,-2.446015 -2.273764,0 -4.409725,0.861274 -2.10151,0.861275 -3.617353,2.239311 -1.515843,1.34359 -2.446019,3.06614 -0.895726,1.6881 -0.895726,3.41065 0,3.20394 2.962785,5.09874 2.756078,1.757 5.236548,1.757 2.44602,0 4.340823,-1.61919 1.894804,-1.65365 2.893883,-4.20302 0.999078,-2.58383 0.999078,-5.09875 0,-1.72255 -0.413412,-3.169489 z"
         style="font-style:normal;font-variant:normal;font-weight:normal;font-stretch:normal;font-size:70.5556px;font-family:'Pokemon Solid';-inkscape-font-specification:'Pokemon Solid, Normal';font-variant-ligatures:normal;font-variant-caps:normal;font-variant-numeric:normal;font-variant-east-asian:normal;fill:url(#linearGradient2128);fill-opacity:1;stroke:url(#linearGradient2130);stroke-width:3.26;stroke-miterlimit:4;stroke-dasharray:none;stroke-opacity:1"
         id="path2083" />
      <path
         d="m 79.182486,73.936902 17.501097,-7.338059 v 11.299921 l 9.301767,-9.88743 11.85113,9.88743 -16.91543,24.529096 35.2778,27.11292 0.82683,13.81484 -35.82902,-19.4648 0.86128,16.91543 -16.39867,0.31006 -3.100588,-59.84135 -5.064294,1.136882 z"
         style="font-style:normal;font-variant:normal;font-weight:normal;font-stretch:normal;font-size:70.5556px;font-family:'Pokemon Solid';-inkscape-font-specification:'Pokemon Solid, Normal';font-variant-ligatures:normal;font-variant-caps:normal;font-variant-numeric:normal;font-variant-east-asian:normal;fill:url(#linearGradient2132);fill-opacity:1;stroke:url(#linearGradient2134);stroke-width:3.26;stroke-miterlimit:4;stroke-dasharray:none;stroke-opacity:1"
         id="path2085" />
      <path
         d="m 152.56307,112.4531 8.30269,10.02523 q -0.99908,2.89388 -4.75424,5.30545 -3.72071,2.41157 -8.88835,3.78961 -5.1332,1.41249 -10.26639,1.41249 -4.54753,0 -8.13043,-1.20579 -3.54846,-1.20578 -5.47771,-3.6518 -3.34174,-4.20302 -3.34174,-10.7487 0,-5.16765 1.86035,-10.16304 1.8948,-5.02985 3.99631,-7.028 2.51492,-2.37712 5.44326,-3.961865 2.96278,-1.584745 6.13227,-2.377118 3.16949,-0.792372 6.51124,-0.792372 4.37527,0 8.30268,1.41249 3.96186,1.378039 6.92465,4.030764 l -18.91359,22.565391 q 2.51492,0 4.75424,-1.03353 2.27376,-1.06798 4.16856,-2.99723 1.89481,-1.96371 3.3762,-4.58198 z m -9.54292,-8.02708 q -1.6881,-0.86128 -3.4451,-0.86128 -1.86035,0 -3.61735,0.75792 -1.72255,0.75793 -2.44602,1.79146 -2.13596,2.75607 -2.13596,6.06337 0,1.20578 0.24115,2.30821 0.24116,1.10243 0.82683,3.03169 z m -17.7078,-24.839158 18.36237,-10.163038 7.88927,12.126744 -22.28978,4.23747 z"
         style="font-style:normal;font-variant:normal;font-weight:normal;font-stretch:normal;font-size:70.5556px;font-family:'Pokemon Solid';-inkscape-font-specification:'Pokemon Solid, Normal';font-variant-ligatures:normal;font-variant-caps:normal;font-variant-numeric:normal;font-variant-east-asian:normal;fill:url(#linearGradient2136);fill-opacity:1;stroke:url(#linearGradient2138);stroke-width:3.26;stroke-miterlimit:4;stroke-dasharray:none;stroke-opacity:1"
         id="path2087" />
      <path
         d="m 186.29058,84.375548 q -2.85943,-0.999078 -4.54753,-0.999078 -2.34267,0 -4.51308,1.550294 l 1.72255,31.350386 q 5.82221,-2.51492 7.75147,-4.96094 1.9637,-2.48047 2.37712,-4.09966 0.34451,-0.75792 0.68902,-3.75516 0.37896,-2.99724 0.37896,-6.68349 0,-4.823137 -0.89573,-8.233784 -0.86127,-3.445097 -2.96278,-4.168568 z m 13.53923,-6.201176 q 1.6192,3.238392 2.68718,6.717941 1.10243,3.445098 1.58474,6.890195 0.51677,3.445098 0.51677,6.786843 0,5.994469 -1.6192,11.506629 -1.58474,5.51215 -4.58198,9.88743 -2.99723,4.34082 -7.26916,7.06245 -4.23747,2.72163 -9.40511,3.34174 l -14.36606,2.54938 -4.82314,-44.303962 q -0.24115,0 -1.68809,1.825902 -1.44695,1.825902 -1.6881,1.825902 -0.75792,-0.516765 -1.34359,-2.928333 -0.55122,-2.411569 -1.6192,-7.510313 -1.03353,-5.098745 -1.55029,-6.201176 7.95818,-2.583824 14.98617,-4.168569 7.028,-1.619196 13.09138,-1.619196 13.02247,0 17.08768,8.337137 z"
         style="font-style:normal;font-variant:normal;font-weight:normal;font-stretch:normal;font-size:70.5556px;font-family:'Pokemon Solid';-inkscape-font-specification:'Pokemon Solid, Normal';font-variant-ligatures:normal;font-variant-caps:normal;font-variant-numeric:normal;font-variant-east-asian:normal;fill:url(#linearGradient2140);fill-opacity:1;stroke:url(#linearGradient2142);stroke-width:3.26;stroke-miterlimit:4;stroke-dasharray:none;stroke-opacity:1"
         id="path2089" />
      <path
         d="m 233.69512,112.4531 8.30268,10.02523 q -0.99907,2.89388 -4.75423,5.30545 -3.72071,2.41157 -8.88835,3.78961 -5.1332,1.41249 -10.26639,1.41249 -4.54753,0 -8.13043,-1.20579 -3.54846,-1.20578 -5.47771,-3.6518 -3.34175,-4.20302 -3.34175,-10.7487 0,-5.16765 1.86036,-10.16304 1.8948,-5.02985 3.99631,-7.028 2.51492,-2.37712 5.44326,-3.961865 2.96278,-1.584745 6.13227,-2.377118 3.16949,-0.792372 6.51123,-0.792372 4.37528,0 8.30269,1.41249 3.96186,1.378039 6.92465,4.030764 l -18.91359,22.565391 q 2.51492,0 4.75423,-1.03353 2.27377,-1.06798 4.16857,-2.99723 1.89481,-1.96371 3.3762,-4.58198 z m -9.54292,-8.02708 q -1.6881,-0.86128 -3.4451,-0.86128 -1.86035,0 -3.61735,0.75792 -1.72255,0.75793 -2.44602,1.79146 -2.13596,2.75607 -2.13596,6.06337 0,1.20578 0.24115,2.30821 0.24116,1.10243 0.82683,3.03169 z"
         style="font-style:normal;font-variant:normal;font-weight:normal;font-stretch:normal;font-size:70.5556px;font-family:'Pokemon Solid';-inkscape-font-specification:'Pokemon Solid, Normal';font-variant-ligatures:normal;font-variant-caps:normal;font-variant-numeric:normal;font-variant-east-asian:normal;fill:url(#linearGradient2144);fill-opacity:1;stroke:url(#linearGradient2146);stroke-width:3.26;stroke-miterlimit:4;stroke-dasharray:none;stroke-opacity:1"
         id="path2091" />
      <path
         d="m 262.04827,119.92896 -13.26362,22.87545 -17.77671,0.55121 24.5291,-39.79088 -20.60169,-34.416524 19.22365,2.790529 9.57737,16.398666 9.30177,-16.398666 18.91358,-0.826823 -20.01602,33.658608 17.77671,35.4845 -19.49925,-4.51307 z"
         style="font-style:normal;font-variant:normal;font-weight:normal;font-stretch:normal;font-size:70.5556px;font-family:'Pokemon Solid';-inkscape-font-specification:'Pokemon Solid, Normal';font-variant-ligatures:normal;font-variant-caps:normal;font-variant-numeric:normal;font-variant-east-asian:normal;fill:url(#linearGradient2148);fill-opacity:1;stroke:url(#linearGradient2150);stroke-width:3.26;stroke-miterlimit:4;stroke-dasharray:none;stroke-opacity:1"
         id="path2093" />
    </g>
  </g>
</svg>
